<svg width="93" height="93" viewBox="0 0 93 93" fill="none" xmlns="http://www.w3.org/2000/svg">
<path d="M29.4574 47.1321C24.101 47.1321 19.7432 51.4896 19.7432 56.8463C19.7432 62.203 24.101 66.5605 29.4574 66.5605C34.8137 66.5605 39.1716 62.203 39.1716 56.8463C39.1716 51.4896 34.8137 47.1321 29.4574 47.1321ZM36.3956 57.7107L26.3216 63.4672C26.2109 63.5305 26.0879 63.5621 25.9646 63.5621C25.8399 63.5621 25.7151 63.5298 25.6034 63.4651C25.3817 63.3358 25.245 63.099 25.245 62.8425V51.3293C25.245 51.0729 25.3817 50.8361 25.6034 50.7068C25.8258 50.5788 26.0991 50.5782 26.3216 50.7046L36.3956 56.4612C36.6197 56.5891 36.7582 56.828 36.7582 57.0859C36.7582 57.3438 36.6197 57.5827 36.3956 57.7107Z" fill="#9F6B08"/>
<path d="M91.3456 34.2514C90.7848 33.8501 90.0509 33.7461 89.3833 33.9752L70.3779 40.45C69.683 40.6868 69.1949 41.2601 69.0993 41.9179L64.7615 43.0809V41.0156C64.7615 39.8252 63.7932 38.8569 62.6028 38.8569H59.0049V38.599C59.0049 37.4557 58.2692 36.4235 57.1979 36.0833C56.9593 36.0137 56.719 35.9786 56.4843 35.9786H22.6507L53.0772 21.7685C54.151 21.2667 54.6242 19.9745 54.1323 18.8873L52.1865 14.584C51.9456 14.0513 51.513 13.6465 50.9688 13.4456C50.4312 13.2447 49.8469 13.2692 49.3248 13.5131L46.0782 15.0295C47.8252 13.4484 48.9309 11.1709 48.9309 8.63487C48.9309 3.87331 45.0572 0 40.2961 0C37.3513 0 34.7492 1.48412 33.1899 3.74048C27.0876 7.62365 19.3191 6.9315 16.2518 6.44874C14.9909 6.00814 13.642 5.75658 12.2327 5.75658C5.48746 5.75658 0 11.244 0 17.9893C0 24.7346 5.48746 30.222 12.2327 30.222C12.7587 30.222 13.2734 30.1778 13.7822 30.1124L1.61062 35.7973C1.05583 36.0559 0.665818 36.5274 0.481679 37.0714C0.181977 37.5028 0 38.0277 0 38.599V75.0934C0 76.5382 1.13066 77.7138 2.52059 77.7138H18.4004L5.12767 90.8748C4.84553 91.1545 4.84344 91.6098 5.12342 91.8923C5.26396 92.0343 5.44917 92.1053 5.63432 92.1053C5.81738 92.1053 6.0008 92.0357 6.14097 91.8966L20.4442 77.7138H38.5607L52.864 91.8966C53.0041 92.0357 53.1875 92.1053 53.3706 92.1053C53.5558 92.1053 53.741 92.0343 53.8815 91.8923C54.1615 91.6098 54.1594 91.1545 53.8773 90.8748L40.6045 77.7138H56.4843C56.783 77.7138 57.0848 77.6562 57.3814 77.5423C57.4232 77.5262 57.4632 77.5065 57.5004 77.4826C58.4052 77.0715 59.0049 76.1271 59.0049 75.0934V74.8355H62.6028C63.7932 74.8355 64.7615 73.8672 64.7615 72.6768V70.6875L69.0983 71.8448C69.1896 72.5109 69.6696 73.0745 70.3783 73.3163L89.3833 79.791C89.6177 79.8711 89.8598 79.9105 90.0997 79.9105C90.5449 79.9105 90.982 79.7755 91.3456 79.5148C91.8284 79.1691 92.1053 78.6498 92.1053 78.0891V35.6778C92.1053 35.1171 91.8284 34.5971 91.3456 34.2514ZM44.6135 37.4178H50.3701V43.1743H44.6135V37.4178ZM37.4178 37.4178H43.1743V43.1743H37.4178V37.4178ZM30.222 37.4178H35.9786V43.1743H30.222V37.4178ZM23.0263 37.4178H28.7829V43.1743H23.0263V37.4178ZM19.8065 35.7186L19.6843 28.9452L26.0736 25.9608L26.1959 32.7342L19.8065 35.7186ZM21.5872 37.4178V43.1743H15.8306V37.4178H21.5872ZM27.6234 32.0674L27.5012 25.294L33.8902 22.3103L34.0125 29.0837L27.6234 32.0674ZM35.44 28.4168L35.3177 21.6434L41.7071 18.6597L41.8294 25.4331L35.44 28.4168ZM49.9337 14.8173C50.0275 14.7738 50.1276 14.7512 50.2277 14.7512C50.3089 14.7512 50.3904 14.766 50.4691 14.7948C50.6498 14.8623 50.7942 14.9979 50.8753 15.1771L52.8211 19.4805C52.9897 19.8536 52.8316 20.2949 52.4683 20.4643L43.2569 24.7662L43.1346 17.9928L49.9337 14.8173ZM40.2961 2.87829C43.4702 2.87829 46.0526 5.46076 46.0526 8.63487C46.0526 11.809 43.4702 14.3914 40.2961 14.3914C37.1219 14.3914 34.5395 11.809 34.5395 8.63487C34.5395 5.46076 37.1219 2.87829 40.2961 2.87829ZM21.2748 8.28494C24.5705 8.28494 28.4561 7.76843 32.0723 6.00958C31.807 6.83802 31.6612 7.71921 31.6612 8.63487C31.6612 13.3964 35.5349 17.2697 40.2961 17.2697C40.6966 17.2697 41.0876 17.2325 41.4738 17.1798L20.5093 26.9713C22.9346 24.7346 24.4655 21.5415 24.4655 17.9893C24.4655 14.0063 22.5436 10.4724 19.5873 8.23781C20.1305 8.26594 20.6898 8.28494 21.2748 8.28494ZM12.2327 27.3437C7.07447 27.3437 2.87829 23.1472 2.87829 17.9893C2.87829 12.8314 7.07447 8.63487 12.2327 8.63487C17.391 8.63487 21.5872 12.8314 21.5872 17.9893C21.5872 23.1472 17.391 27.3437 12.2327 27.3437ZM18.2567 29.6114L18.3716 35.9786H11.9284L11.8677 32.5958L18.2567 29.6114ZM14.3914 37.4178V43.1743H8.63487V37.4178H14.3914ZM10.4401 33.2619L10.489 35.9786H4.62383L10.4401 33.2619ZM1.43914 38.599C1.43914 37.9476 1.92435 37.4178 2.52059 37.4178H7.19572V43.1743H1.43914V38.599ZM1.43914 47.4918H17.2697C17.6671 47.4918 17.9893 47.8136 17.9893 48.2113C17.9893 48.6091 17.6671 48.9309 17.2697 48.9309H1.43914V47.4918ZM1.43914 50.3701H14.3914C14.7888 50.3701 15.111 50.6919 15.111 51.0896C15.111 51.4873 14.7888 51.8092 14.3914 51.8092H1.43914V50.3701ZM1.43914 53.2484H11.5132C11.9105 53.2484 12.2327 53.5702 12.2327 53.9679C12.2327 54.3656 11.9105 54.6875 11.5132 54.6875H1.43914V53.2484ZM1.43914 56.1266H8.63487C9.03221 56.1266 9.35444 56.4485 9.35444 56.8462C9.35444 57.2439 9.03221 57.5658 8.63487 57.5658H1.43914V56.1266ZM1.43914 59.0049H11.5132C11.9105 59.0049 12.2327 59.3268 12.2327 59.7245C12.2327 60.1222 11.9105 60.4441 11.5132 60.4441H1.43914V59.0049ZM1.43914 61.8832H14.3914C14.7888 61.8832 15.111 62.2051 15.111 62.6028C15.111 63.0005 14.7888 63.3224 14.3914 63.3224H1.43914V61.8832ZM1.43914 64.7615H17.2697C17.6671 64.7615 17.9893 65.0834 17.9893 65.4811C17.9893 65.8788 17.6671 66.2007 17.2697 66.2007H1.43914V64.7615ZM7.19572 76.2747H2.52059C1.92435 76.2747 1.43914 75.7449 1.43914 75.0934V70.5181H7.19572V76.2747ZM14.3914 76.2747H8.63487V70.5181H14.3914V76.2747ZM21.5872 76.2747H15.8306V70.5181H21.5872V76.2747ZM28.7829 76.2747H23.0263V70.5181H28.7829V76.2747ZM35.9786 76.2747H30.222V70.5181H35.9786V76.2747ZM29.4575 67.9996C23.3074 67.9996 18.3041 62.9963 18.3041 56.8462C18.3041 50.6961 23.3074 45.6928 29.4575 45.6928C35.6076 45.6928 40.6109 50.6961 40.6109 56.8462C40.6109 62.9963 35.6076 67.9996 29.4575 67.9996ZM43.1743 76.2747H38.8548C38.8541 76.2747 38.853 76.2747 38.852 76.2747H37.4178V70.5181H43.1743V76.2747ZM50.3701 76.2747H44.6135V70.5181H50.3701V76.2747ZM57.5658 74.116V75.0934C57.5658 75.5839 57.2819 76.0252 56.8596 76.1918C56.8339 76.2023 56.8086 76.2135 56.7848 76.2269C56.6818 76.2585 56.5809 76.2747 56.4843 76.2747H51.8092V70.5181H57.5658V74.116ZM57.5658 66.2007H41.7352C41.3378 66.2007 41.0156 65.8788 41.0156 65.4811C41.0156 65.0834 41.3378 64.7615 41.7352 64.7615H57.5658V66.2007ZM57.5658 63.3224H44.6135C44.2161 63.3224 43.8939 63.0005 43.8939 62.6028C43.8939 62.2051 44.2161 61.8832 44.6135 61.8832H57.5658V63.3224ZM57.5658 60.4441H47.4918C47.0944 60.4441 46.7722 60.1222 46.7722 59.7245C46.7722 59.3268 47.0944 59.0049 47.4918 59.0049H57.5658V60.4441ZM57.5658 57.5658H50.3701C49.9727 57.5658 49.6505 57.2439 49.6505 56.8462C49.6505 56.4485 49.9727 56.1266 50.3701 56.1266H57.5658V57.5658ZM57.5658 54.6875H47.4918C47.0944 54.6875 46.7722 54.3656 46.7722 53.9679C46.7722 53.5702 47.0944 53.2484 47.4918 53.2484H57.5658V54.6875ZM57.5658 51.8092H44.6135C44.2161 51.8092 43.8939 51.4873 43.8939 51.0896C43.8939 50.6919 44.2161 50.3701 44.6135 50.3701H57.5658V51.8092ZM57.5658 48.9309H41.7352C41.3378 48.9309 41.0156 48.6091 41.0156 48.2113C41.0156 47.8136 41.3378 47.4918 41.7352 47.4918H57.5658V48.9309ZM57.5658 39.5765V43.1743H51.8092V37.4178H56.4843C56.5848 37.4178 56.687 37.4332 56.7798 37.4599C57.2426 37.6068 57.5658 38.0755 57.5658 38.599V39.5765ZM63.3224 72.6768C63.3224 73.0739 62.9995 73.3964 62.6028 73.3964H59.0049V40.2961H62.6028C62.9995 40.2961 63.3224 40.6186 63.3224 41.0156V72.6768ZM90.6661 78.0891C90.6661 78.2071 90.5801 78.2929 90.508 78.3449C90.3664 78.4453 90.1177 78.5212 89.8471 78.4291L70.8424 71.9544C70.6485 71.8884 70.5181 71.7514 70.5181 71.6136V67.0102H69.0789V70.3501L64.7615 69.1984V44.5713L69.0789 43.4132V56.5764H70.5181V42.1526C70.5181 42.0149 70.6485 41.8778 70.842 41.8118L89.8471 35.337C90.1177 35.2436 90.3661 35.3202 90.5077 35.4214C90.5801 35.4734 90.6661 35.5598 90.6661 35.6778V78.0891Z" fill="#9F6B08"/>
</svg>
